<?xml version="1.0" standalone="no"?>
<!DOCTYPE svg PUBLIC "-//W3C//DTD SVG 20010904//EN"
 "http://www.w3.org/TR/2001/REC-SVG-20010904/DTD/svg10.dtd">
<svg version="1.0" xmlns="http://www.w3.org/2000/svg"
 width="720.000000pt" height="630.000000pt" viewBox="0 0 720.000000 630.000000"
 preserveAspectRatio="xMidYMid meet">
<metadata>
Created by potrace 1.10, written by Peter Selinger 2001-2011
</metadata>
<g transform="translate(0.000000,630.000000) scale(0.100000,-0.100000)"
fill="#ffffff" stroke="none">
<path d="M1974 5947 c-2 -7 -3 -94 -2 -192 l3 -180 1750 0 1750 0 0 190 0 190
-1748 3 c-1417 2 -1749 0 -1753 -11z"/>
<path d="M1945 4478 c-3 -7 -4 -438 -3 -958 l3 -945 1744 -3 1745 -2 23 22
c23 22 23 24 21 207 l-3 186 -1510 5 -1510 5 0 550 0 550 1510 5 1510 5 0 190
0 190 -1763 3 c-1405 2 -1764 0 -1767 -10z"/>
<path d="M401 1496 c-16 -17 -22 -33 -19 -57 l3 -34 649 -3 650 -2 23 22 c29
27 29 49 0 76 l-23 22 -630 0 -631 0 -22 -24z"/>
<path d="M2021 1496 c-16 -17 -22 -33 -19 -57 l3 -34 610 -5 610 -5 0 -160 0
-160 -610 -5 -610 -5 0 -265 0 -265 55 0 55 0 5 205 5 205 589 3 c589 2 590 2
613 24 23 21 23 24 23 263 0 240 0 242 -23 263 l-23 22 -630 0 -631 0 -22 -24z"/>
<path d="M3641 1496 c-16 -17 -22 -33 -19 -57 l3 -34 655 0 655 0 0 55 0 55
-636 3 -635 2 -23 -24z"/>
<path d="M5242 1028 l3 -493 40 0 40 0 3 493 c1 281 -2 492 -7 492 -5 0 -14
-7 -21 -15 -12 -14 -15 -14 -30 0 -9 8 -20 15 -23 15 -4 0 -6 -222 -5 -492z"/>
<path d="M6252 1497 c-21 -23 -22 -28 -24 -433 l-3 -409 -275 -3 c-267 -2
-275 -3 -298 -24 -17 -17 -22 -31 -20 -58 l3 -35 355 0 355 0 5 430 5 430 290
3 c281 2 290 3 312 24 29 27 29 49 0 76 -23 22 -28 22 -353 22 l-331 0 -21
-23z"/>
<path d="M4242 1197 c-22 -23 -22 -27 -22 -323 l0 -301 24 -22 c17 -16 33 -22
57 -19 l34 3 0 340 0 340 -35 3 c-27 2 -41 -3 -58 -21z"/>
<path d="M385 1057 c-3 -7 -4 -127 -3 -267 l3 -255 649 -3 650 -2 23 22 c29
27 29 49 0 76 -23 22 -24 22 -613 24 l-589 3 0 145 0 145 589 3 590 2 23 22
c18 17 23 31 21 58 l-3 35 -668 3 c-533 2 -669 0 -672 -11z"/>
<path d="M3235 757 c-3 -7 -4 -60 -3 -118 l3 -104 35 -3 c27 -2 41 3 58 21 21
22 23 32 20 118 l-3 94 -53 3 c-37 2 -54 -1 -57 -11z"/>
</g>
</svg>
