<?xml version="1.0" standalone="no"?>
<!DOCTYPE svg PUBLIC "-//W3C//DTD SVG 20010904//EN"
 "http://www.w3.org/TR/2001/REC-SVG-20010904/DTD/svg10.dtd">
<svg version="1.0" xmlns="http://www.w3.org/2000/svg"
 width="900.000000pt" height="513.000000pt" viewBox="0 0 900.000000 513.000000"
 preserveAspectRatio="xMidYMid meet">
<metadata>
Created by potrace 1.10, written by Peter Selinger 2001-2011
</metadata>
<g transform="translate(0.000000,513.000000) scale(0.100000,-0.100000)"
fill="#000000" stroke="none">
<path d="M862 4655 c-13 -7 -39 -28 -58 -46 -30 -29 -34 -39 -34 -83 0 -64 24
-117 63 -141 30 -19 57 -20 462 -25 l430 -5 2 -1987 c2 -1914 3 -1987 21
-2020 14 -25 31 -37 73 -51 30 -10 64 -15 77 -12 12 3 45 27 72 53 l50 48 0
1982 c0 1277 3 1983 10 1987 5 3 186 6 401 5 388 0 391 0 427 22 66 40 72 51
72 126 0 66 -1 69 -37 102 -21 19 -48 41 -60 48 -33 18 -1938 16 -1971 -3z"/>
<path d="M2749 4046 c-3 -3 -26 -10 -50 -15 -86 -19 -116 -28 -135 -44 -10 -9
-35 -27 -54 -39 -19 -13 -45 -39 -58 -58 -12 -19 -30 -44 -39 -54 -16 -20 -23
-42 -49 -158 -11 -49 -12 -73 -4 -87 5 -11 10 -31 10 -45 0 -24 7 -42 32 -86
4 -8 12 -24 17 -35 12 -28 149 -156 189 -177 l32 -17 0 -798 0 -798 39 -43
c38 -42 39 -42 108 -42 67 0 70 1 106 38 l37 38 0 804 0 804 27 28 c15 15 32
28 38 28 22 0 104 97 139 163 35 65 36 71 36 172 0 58 -4 113 -9 123 -6 9 -13
30 -16 46 -9 42 -130 167 -195 201 -30 16 -77 32 -105 37 -27 4 -59 10 -70 13
-11 3 -23 4 -26 1z m84 -281 c43 -18 77 -82 77 -146 0 -40 -5 -50 -43 -87 -41
-40 -46 -42 -103 -42 -70 0 -96 15 -124 70 -33 65 -24 114 31 169 52 53 98 63
162 36z"/>
<path d="M783 3761 c-28 -10 -62 -25 -75 -34 -13 -9 -41 -29 -63 -45 -22 -15
-45 -38 -51 -50 -6 -12 -17 -30 -25 -39 -25 -32 -39 -62 -39 -87 0 -13 -7 -29
-15 -36 -21 -17 -21 -178 0 -206 8 -10 15 -27 15 -37 0 -45 130 -187 198 -217
l42 -19 0 -974 c0 -854 2 -976 15 -987 8 -7 15 -18 15 -24 0 -7 18 -29 39 -49
33 -31 46 -37 83 -37 52 0 107 40 138 101 19 37 20 63 20 1001 1 997 1 998 39
998 32 0 161 147 161 184 0 7 7 19 15 26 9 7 15 29 15 51 0 21 5 41 11 45 11
6 9 39 -9 124 -9 42 -27 86 -56 137 -22 39 -140 153 -158 153 -9 0 -20 5 -23
10 -3 6 -17 10 -30 10 -13 0 -27 5 -30 10 -10 17 -175 10 -232 -9z m214 -271
c33 -20 63 -75 63 -114 -3 -94 -131 -176 -212 -133 -68 35 -78 50 -78 123 0
65 2 70 37 106 35 36 41 38 98 38 42 0 70 -6 92 -20z"/>
<path d="M3651 3721 c-19 -10 -42 -33 -52 -52 -17 -32 -18 -101 -19 -1376 0
-1206 -2 -1343 -16 -1357 -14 -14 -80 -16 -574 -16 -495 0 -563 -2 -593 -16
-42 -20 -67 -72 -67 -140 0 -45 4 -54 38 -87 l38 -37 692 0 691 0 36 31 35 31
2 1367 3 1366 334 3 c268 2 338 5 350 16 9 8 25 16 36 18 12 2 23 15 28 33 5
17 13 38 18 47 22 44 8 87 -51 151 l-34 37 -431 0 c-395 -1 -433 -2 -464 -19z"/>
<path d="M4465 1236 c-76 -29 -105 -67 -105 -138 0 -27 6 -61 14 -77 22 -42
92 -101 120 -101 14 0 28 -4 31 -10 3 -5 23 -14 45 -20 50 -14 100 -55 100
-84 0 -12 -13 -35 -29 -50 -28 -27 -32 -28 -119 -25 -68 3 -95 8 -109 22 -26
23 -40 22 -59 -8 -15 -23 -15 -27 0 -50 35 -53 236 -76 315 -35 70 35 119 164
77 200 -8 6 -16 21 -18 33 -2 12 -12 23 -23 26 -11 2 -31 14 -44 27 -23 23
-34 28 -58 25 -6 -1 -14 3 -18 9 -3 5 -16 10 -29 10 -25 0 -87 52 -105 88 -11
20 -8 26 17 52 16 16 42 32 57 36 29 7 116 -11 148 -30 21 -13 50 2 55 29 6
26 -45 72 -86 79 -98 16 -118 15 -177 -8z"/>
<path d="M5045 1250 c-11 -5 -32 -9 -46 -9 -30 -1 -108 -72 -132 -121 -14 -26
-17 -64 -17 -187 0 -144 1 -156 24 -191 53 -83 92 -102 212 -102 94 0 111 7
182 74 l42 40 0 182 c0 123 -4 185 -11 190 -6 3 -17 22 -25 40 -15 36 -55 62
-119 76 -71 16 -90 18 -110 8z m133 -113 c38 -35 45 -64 48 -192 3 -153 -8
-182 -78 -214 -62 -29 -109 -23 -150 16 -51 48 -58 72 -58 196 0 111 1 115 31
156 16 23 45 49 62 57 43 19 114 10 145 -19z"/>
<path d="M5455 1227 c-3 -7 -4 -140 -3 -297 l3 -285 40 0 40 0 3 120 c1 66 7
124 12 129 5 5 37 9 72 10 l63 1 3 33 c2 21 -1 32 -10 33 -7 0 -40 1 -73 2
l-60 2 0 95 0 95 122 3 c129 3 151 11 138 52 -6 19 -14 20 -176 20 -127 0
-171 -3 -174 -13z"/>
<path d="M5854 1226 c-3 -8 -4 -23 -2 -33 3 -15 16 -19 83 -23 l80 -5 3 -249
c1 -169 6 -254 14 -263 6 -8 25 -13 42 -11 l31 3 3 249 c1 164 6 254 13 263 8
9 38 13 100 13 86 0 89 1 95 24 3 14 3 30 -1 35 -4 7 -84 11 -231 11 -186 0
-226 -2 -230 -14z"/>
<path d="M6357 1193 c3 -27 9 -52 14 -57 5 -6 9 -27 9 -47 0 -20 7 -42 15 -49
9 -7 15 -29 15 -51 0 -21 4 -40 9 -43 5 -3 12 -24 15 -46 3 -22 9 -58 12 -80
3 -22 10 -43 15 -46 5 -3 9 -18 9 -33 0 -16 6 -34 14 -41 8 -6 16 -21 18 -33
3 -19 10 -22 61 -25 57 -3 57 -3 63 28 4 17 11 33 15 36 5 3 9 27 9 53 0 26 5
52 12 59 12 12 15 31 39 210 9 63 17 92 26 92 8 0 13 -13 13 -39 0 -21 6 -44
14 -50 8 -7 14 -29 14 -50 0 -21 3 -49 7 -62 9 -27 13 -54 21 -154 3 -38 11
-74 18 -80 7 -5 15 -18 19 -28 6 -15 16 -17 63 -15 55 3 56 3 70 43 7 22 14
52 14 66 0 15 7 32 15 39 9 7 15 29 15 51 0 21 4 40 9 43 5 3 11 23 14 43 3
21 11 58 17 83 6 25 14 59 17 77 3 18 11 38 19 44 9 7 14 31 14 61 l0 49 -42
-3 -43 -3 -3 -47 c-2 -25 -10 -52 -18 -58 -8 -7 -14 -29 -14 -51 0 -21 -4 -40
-9 -43 -5 -3 -11 -23 -14 -43 -11 -73 -18 -108 -27 -128 -5 -11 -11 -36 -12
-55 -2 -27 -8 -36 -25 -38 -19 -3 -22 2 -27 60 -11 118 -14 135 -25 156 -6 11
-11 40 -11 64 0 24 -7 52 -15 62 -8 11 -15 39 -15 63 0 48 -17 63 -72 63 -55
0 -78 -23 -78 -79 0 -26 -5 -52 -12 -59 -6 -6 -12 -28 -14 -49 -4 -74 -17
-154 -25 -159 -5 -3 -9 -30 -9 -59 0 -43 -4 -56 -19 -65 -29 -15 -31 -14 -31
33 0 24 -4 47 -9 52 -5 6 -11 30 -14 55 -10 80 -24 141 -35 152 -7 7 -12 29
-12 49 0 21 -4 41 -10 44 -5 3 -10 17 -10 30 0 45 -10 55 -55 55 l-43 0 5 -47z"/>
<path d="M7257 1233 c-4 -3 -7 -18 -7 -33 0 -14 -4 -30 -8 -35 -5 -6 -14 -30
-21 -55 -7 -25 -17 -53 -22 -62 -5 -10 -9 -24 -9 -32 0 -8 -6 -27 -14 -43 -8
-15 -24 -62 -36 -103 -12 -41 -26 -83 -31 -92 -5 -10 -9 -24 -9 -32 0 -8 -8
-27 -17 -44 -23 -40 -12 -62 32 -62 25 0 37 5 41 18 3 9 12 30 20 45 7 16 14
35 14 44 0 8 9 28 21 44 20 28 22 29 114 29 97 0 105 -4 105 -50 0 -9 7 -23
15 -30 8 -7 15 -27 15 -45 0 -41 19 -57 62 -53 31 3 33 5 30 38 -1 19 -9 45
-17 57 -8 12 -15 33 -15 46 0 12 -5 28 -11 34 -6 6 -15 28 -20 49 -5 22 -12
48 -15 59 -3 11 -8 32 -11 47 -3 15 -11 33 -19 39 -8 6 -14 24 -14 40 0 15 -4
30 -9 33 -5 3 -14 30 -21 58 -19 84 -32 98 -89 98 -26 0 -51 -3 -54 -7z m81
-158 c2 -17 10 -34 18 -38 8 -4 14 -19 14 -33 0 -14 5 -34 11 -45 8 -16 7 -25
-7 -40 -14 -16 -28 -19 -68 -17 l-51 3 1 40 c2 58 44 166 64 163 8 -2 16 -16
18 -33z"/>
<path d="M7615 1227 c-3 -7 -4 -140 -3 -297 l3 -285 50 0 50 0 2 95 c3 115 8
136 30 144 20 8 73 -39 73 -65 0 -10 11 -30 24 -46 13 -15 33 -48 46 -73 28
-55 34 -60 88 -60 49 0 53 11 19 61 -13 19 -26 41 -30 49 -10 19 -27 47 -51
82 -23 35 -15 75 18 88 25 9 76 102 76 137 0 31 -38 124 -57 139 -45 36 -85
44 -210 44 -90 0 -125 -3 -128 -13z m253 -84 c23 -17 27 -29 30 -76 4 -77 -16
-97 -96 -97 -32 0 -63 5 -70 12 -16 16 -16 160 1 177 17 18 102 8 135 -16z"/>
<path d="M8176 1231 c-9 -14 -8 -573 2 -583 5 -5 87 -7 183 -6 l174 3 0 30 0
30 -140 5 -140 5 -1 80 c-1 44 3 86 8 93 7 7 36 12 78 12 76 0 93 11 88 57 -3
27 -5 28 -73 31 -92 4 -104 15 -103 95 0 34 5 68 11 75 6 8 45 12 128 12 106
0 118 2 124 19 3 10 3 26 -1 35 -5 14 -27 16 -169 16 -90 0 -166 -4 -169 -9z"/>
</g>
</svg>
